<svg width="185" height="185" viewBox="0 0 185 185" fill="none" xmlns="http://www.w3.org/2000/svg">
<path d="M161.875 52.9213V132.078L92.5 173.437L23.125 132.078V52.9213L92.5 11.5623L161.875 52.9213ZM98.2812 1.54914C96.5235 0.534321 94.5296 6.10352e-05 92.5 6.10352e-05C90.4704 6.10352e-05 88.4765 0.534321 86.7188 1.54914L17.3438 42.9082C15.5861 43.923 14.1265 45.3826 13.1117 47.1402C12.0968 48.8979 11.5626 50.8917 11.5625 52.9213V132.078C11.5626 134.108 12.0968 136.102 13.1117 137.859C14.1265 139.617 15.5861 141.077 17.3438 142.091L86.7188 183.45C88.4765 184.465 90.4704 184.999 92.5 184.999C94.5296 184.999 96.5235 184.465 98.2812 183.45L167.656 142.091C169.414 141.077 170.874 139.617 171.888 137.859C172.903 136.102 173.437 134.108 173.438 132.078V52.9213C173.437 50.8917 172.903 48.8979 171.888 47.1402C170.874 45.3826 169.414 43.923 167.656 42.9082L98.2812 1.54914Z" fill="white"/>
<rect x="90.6223" y="2.72626" width="35.3292" height="89.265" rx="17.6646" transform="rotate(60 90.6223 2.72626)" fill="white"/>
<rect width="32.4281" height="89.265" transform="translate(76.4131 33.1625) rotate(-60)" fill="white"/>
<rect width="29.005" height="89.265" transform="translate(16.0869 133.706) rotate(-60)" fill="white"/>
<rect width="29.005" height="89.265" transform="translate(45.0913 137.526) rotate(-180)" fill="white"/>
<rect width="29.005" height="89.265" transform="translate(169.765 137.526) rotate(-180)" fill="white"/>
<rect width="29.005" height="89.265" transform="translate(153.719 108.587) rotate(60)" fill="white"/>
</svg>
