<svg width="900" height="224" viewBox="0 0 900 224" fill="none" xmlns="http://www.w3.org/2000/svg">
<g clip-path="url(#clip0_138_2)">
<path d="M101.099 151V66.4H116.459V151H101.099ZM137.249 151V66.4H192.569V78.64H152.609V102.52H190.049V114.76H152.609V151H137.249ZM380.99 151V66.4H393.83L423.83 121.72L453.71 66.4H466.31V151H452.39V94L428.15 138.16H419.15L394.91 94.24V151H380.99ZM478.21 151L516.49 66.4H529.09L567.37 151H551.77L543.37 131.44H502.09L493.81 151H478.21ZM522.61 83.08L507.37 119.2H538.09L522.85 83.08H522.61ZM579.027 151V66.4H594.387V103.84H594.627L631.947 66.4H650.667L609.507 107.08L652.707 151H633.747L594.627 111.88H594.387V151H579.027ZM661.114 151V66.4H717.394V78.64H675.874V101.92H714.754V114.16H675.874V138.76H717.394V151H661.114ZM735.116 151V66.4H771.836C781.116 66.4 788.276 68.64 793.316 73.12C798.356 77.52 800.876 83.72 800.876 91.72C800.876 98.04 799.236 103.28 795.956 107.44C792.676 111.52 787.956 114.28 781.796 115.72C785.876 117 789.236 120.08 791.876 124.96L806.036 151H789.116L774.476 124C773.036 121.36 771.316 119.56 769.316 118.6C767.396 117.64 764.916 117.16 761.876 117.16H750.476V151H735.116ZM750.476 105.76H769.196C780.396 105.76 785.996 101.2 785.996 92.08C785.996 83.04 780.396 78.52 769.196 78.52H750.476V105.76Z" fill="white"/>
<path d="M101.099 151H97.0986V155H101.099V151ZM101.099 66.4V62.4H97.0986V66.4H101.099ZM116.459 66.4H120.459V62.4H116.459V66.4ZM116.459 151V155H120.459V151H116.459ZM105.099 151V66.4H97.0986V151H105.099ZM101.099 70.4H116.459V62.4H101.099V70.4ZM112.459 66.4V151H120.459V66.4H112.459ZM116.459 147H101.099V155H116.459V147ZM137.249 151H133.249V155H137.249V151ZM137.249 66.4V62.4H133.249V66.4H137.249ZM192.569 66.4H196.569V62.4H192.569V66.4ZM192.569 78.64V82.64H196.569V78.64H192.569ZM152.609 78.64V74.64H148.609V78.64H152.609ZM152.609 102.52H148.609V106.52H152.609V102.52ZM190.049 102.52H194.049V98.52H190.049V102.52ZM190.049 114.76V118.76H194.049V114.76H190.049ZM152.609 114.76V110.76H148.609V114.76H152.609ZM152.609 151V155H156.609V151H152.609ZM141.249 151V66.4H133.249V151H141.249ZM137.249 70.4H192.569V62.4H137.249V70.4ZM188.569 66.4V78.64H196.569V66.4H188.569ZM192.569 74.64H152.609V82.64H192.569V74.64ZM148.609 78.64V102.52H156.609V78.64H148.609ZM152.609 106.52H190.049V98.52H152.609V106.52ZM186.049 102.52V114.76H194.049V102.52H186.049ZM190.049 110.76H152.609V118.76H190.049V110.76ZM148.609 114.76V151H156.609V114.76H148.609ZM152.609 147H137.249V155H152.609V147ZM380.99 151H376.99V155H380.99V151ZM380.99 66.4V62.4H376.99V66.4H380.99ZM393.83 66.4L397.346 64.4931L396.211 62.4H393.83V66.4ZM423.83 121.72L420.314 123.627L423.837 130.124L427.35 123.621L423.83 121.72ZM453.71 66.4V62.4H451.324L450.191 64.499L453.71 66.4ZM466.31 66.4H470.31V62.4H466.31V66.4ZM466.31 151V155H470.31V151H466.31ZM452.39 151H448.39V155H452.39V151ZM452.39 94H456.39L448.884 92.0752L452.39 94ZM428.15 138.16V142.16H430.517L431.657 140.085L428.15 138.16ZM419.15 138.16L415.648 140.093L416.789 142.16H419.15V138.16ZM394.91 94.24L398.412 92.3072L390.91 94.24H394.91ZM394.91 151V155H398.91V151H394.91ZM384.99 151V66.4H376.99V151H384.99ZM380.99 70.4H393.83V62.4H380.99V70.4ZM390.314 68.3068L420.314 123.627L427.346 119.813L397.346 64.4931L390.314 68.3068ZM427.35 123.621L457.23 68.3009L450.191 64.499L420.311 119.819L427.35 123.621ZM453.71 70.4H466.31V62.4H453.71V70.4ZM462.31 66.4V151H470.31V66.4H462.31ZM466.31 147H452.39V155H466.31V147ZM456.39 151V94H448.39V151H456.39ZM448.884 92.0752L424.644 136.235L431.657 140.085L455.897 95.9247L448.884 92.0752ZM428.15 134.16H419.15V142.16H428.15V134.16ZM422.652 136.227L398.412 92.3072L391.408 96.1728L415.648 140.093L422.652 136.227ZM390.91 94.24V151H398.91V94.24H390.91ZM394.91 147H380.99V155H394.91V147ZM478.21 151L474.566 149.351L472.009 155H478.21V151ZM516.49 66.4V62.4H513.909L512.846 64.751L516.49 66.4ZM529.09 66.4L532.734 64.751L531.67 62.4H529.09V66.4ZM567.37 151V155H573.57L571.014 149.351L567.37 151ZM551.77 151L548.094 152.578L549.134 155H551.77V151ZM543.37 131.44L547.045 129.862L546.005 127.44H543.37V131.44ZM502.09 131.44V127.44H499.439L498.406 129.881L502.09 131.44ZM493.81 151V155H496.46L497.493 152.559L493.81 151ZM522.61 83.08V79.08H519.956L518.924 81.525L522.61 83.08ZM507.37 119.2L503.684 117.645L501.341 123.2H507.37V119.2ZM538.09 119.2V123.2H544.119L541.775 117.645L538.09 119.2ZM522.85 83.08L526.535 81.525L525.504 79.08H522.85V83.08ZM481.854 152.649L520.134 68.049L512.846 64.751L474.566 149.351L481.854 152.649ZM516.49 70.4H529.09V62.4H516.49V70.4ZM525.446 68.049L563.726 152.649L571.014 149.351L532.734 64.751L525.446 68.049ZM567.37 147H551.77V155H567.37V147ZM555.445 149.422L547.045 129.862L539.694 133.018L548.094 152.578L555.445 149.422ZM543.37 127.44H502.09V135.44H543.37V127.44ZM498.406 129.881L490.126 149.441L497.493 152.559L505.773 132.999L498.406 129.881ZM493.81 147H478.21V155H493.81V147ZM518.924 81.525L503.684 117.645L511.055 120.755L526.295 84.635L518.924 81.525ZM507.37 123.2H538.09V115.2H507.37V123.2ZM541.775 117.645L526.535 81.525L519.164 84.635L534.404 120.755L541.775 117.645ZM522.85 79.08H522.61V87.08H522.85V79.08ZM579.027 151H575.027V155H579.027V151ZM579.027 66.4V62.4H575.027V66.4H579.027ZM594.387 66.4H598.387V62.4H594.387V66.4ZM594.387 103.84H590.387V107.84H594.387V103.84ZM594.627 103.84V107.84H596.287L597.46 106.664L594.627 103.84ZM631.947 66.4V62.4H630.286L629.114 63.5761L631.947 66.4ZM650.667 66.4L653.479 69.245L660.404 62.4H650.667V66.4ZM609.507 107.08L606.695 104.235L603.857 107.04L606.655 109.885L609.507 107.08ZM652.707 151V155H662.252L655.558 148.195L652.707 151ZM633.747 151L630.918 153.828L632.09 155H633.747V151ZM594.627 111.88L597.455 109.052L596.284 107.88H594.627V111.88ZM594.387 111.88V107.88H590.387V111.88H594.387ZM594.387 151V155H598.387V151H594.387ZM583.027 151V66.4H575.027V151H583.027ZM579.027 70.4H594.387V62.4H579.027V70.4ZM590.387 66.4V103.84H598.387V66.4H590.387ZM594.387 107.84H594.627V99.84H594.387V107.84ZM597.46 106.664L634.78 69.2239L629.114 63.5761L591.794 101.016L597.46 106.664ZM631.947 70.4H650.667V62.4H631.947V70.4ZM647.855 63.555L606.695 104.235L612.319 109.925L653.479 69.245L647.855 63.555ZM606.655 109.885L649.855 153.805L655.558 148.195L612.358 104.275L606.655 109.885ZM652.707 147H633.747V155H652.707V147ZM636.575 148.172L597.455 109.052L591.798 114.708L630.918 153.828L636.575 148.172ZM594.627 107.88H594.387V115.88H594.627V107.88ZM590.387 111.88V151H598.387V111.88H590.387ZM594.387 147H579.027V155H594.387V147ZM661.114 151H657.114V155H661.114V151ZM661.114 66.4V62.4H657.114V66.4H661.114ZM717.394 66.4H721.394V62.4H717.394V66.4ZM717.394 78.64V82.64H721.394V78.64H717.394ZM675.874 78.64V74.64H671.874V78.64H675.874ZM675.874 101.92H671.874V105.92H675.874V101.92ZM714.754 101.92H718.754V97.92H714.754V101.92ZM714.754 114.16V118.16H718.754V114.16H714.754ZM675.874 114.16V110.16H671.874V114.16H675.874ZM675.874 138.76H671.874V142.76H675.874V138.76ZM717.394 138.76H721.394V134.76H717.394V138.76ZM717.394 151V155H721.394V151H717.394ZM665.114 151V66.4H657.114V151H665.114ZM661.114 70.4H717.394V62.4H661.114V70.4ZM713.394 66.4V78.64H721.394V66.4H713.394ZM717.394 74.64H675.874V82.64H717.394V74.64ZM671.874 78.64V101.92H679.874V78.64H671.874ZM675.874 105.92H714.754V97.92H675.874V105.92ZM710.754 101.92V114.16H718.754V101.92H710.754ZM714.754 110.16H675.874V118.16H714.754V110.16ZM671.874 114.16V138.76H679.874V114.16H671.874ZM675.874 142.76H717.394V134.76H675.874V142.76ZM713.394 138.76V151H721.394V138.76H713.394ZM717.394 147H661.114V155H717.394V147ZM735.116 151H731.116V155H735.116V151ZM735.116 66.4V62.4H731.116V66.4H735.116ZM793.316 73.12L790.658 76.1096L790.672 76.1215L790.685 76.1333L793.316 73.12ZM795.956 107.44L799.073 109.946L799.085 109.931L799.097 109.917L795.956 107.44ZM781.796 115.72L780.885 111.825L766.636 115.156L780.598 119.537L781.796 115.72ZM791.876 124.96L788.358 126.863L788.362 126.871L791.876 124.96ZM806.036 151V155H812.764L809.55 149.089L806.036 151ZM789.116 151L785.599 152.907L786.735 155H789.116V151ZM774.476 124L777.992 122.093L777.987 122.085L774.476 124ZM769.316 118.6L767.527 122.178L767.556 122.192L767.585 122.206L769.316 118.6ZM750.476 117.16V113.16H746.476V117.16H750.476ZM750.476 151V155H754.476V151H750.476ZM750.476 105.76H746.476V109.76H750.476V105.76ZM750.476 78.52V74.52H746.476V78.52H750.476ZM739.116 151V66.4H731.116V151H739.116ZM735.116 70.4H771.836V62.4H735.116V70.4ZM771.836 70.4C780.506 70.4 786.587 72.4902 790.658 76.1096L795.973 70.1304C789.965 64.7898 781.726 62.4 771.836 62.4V70.4ZM790.685 76.1333C794.684 79.6246 796.876 84.6273 796.876 91.72H804.876C804.876 82.8127 802.027 75.4153 795.946 70.1067L790.685 76.1333ZM796.876 91.72C796.876 97.3212 795.436 101.638 792.815 104.963L799.097 109.917C803.035 104.922 804.876 98.7588 804.876 91.72H796.876ZM792.838 104.934C790.228 108.181 786.362 110.545 780.885 111.825L782.706 119.615C789.549 118.015 795.124 114.859 799.073 109.946L792.838 104.934ZM780.598 119.537C783.416 120.42 786.06 122.616 788.358 126.863L795.394 123.057C792.412 117.544 788.336 113.58 782.993 111.903L780.598 119.537ZM788.362 126.871L802.522 152.911L809.55 149.089L795.39 123.049L788.362 126.871ZM806.036 147H789.116V155H806.036V147ZM792.632 149.093L777.992 122.093L770.959 125.907L785.599 152.907L792.632 149.093ZM777.987 122.085C776.286 118.965 774.03 116.426 771.047 114.994L767.585 122.206C768.602 122.694 769.786 123.754 770.964 125.915L777.987 122.085ZM771.105 115.022C768.447 113.694 765.295 113.16 761.876 113.16V121.16C764.537 121.16 766.344 121.586 767.527 122.178L771.105 115.022ZM761.876 113.16H750.476V121.16H761.876V113.16ZM746.476 117.16V151H754.476V117.16H746.476ZM750.476 147H735.116V155H750.476V147ZM750.476 109.76H769.196V101.76H750.476V109.76ZM769.196 109.76C775.236 109.76 780.508 108.547 784.322 105.442C788.292 102.209 789.996 97.4986 789.996 92.08H781.996C781.996 95.7814 780.899 97.9115 779.27 99.2383C777.484 100.693 774.356 101.76 769.196 101.76V109.76ZM789.996 92.08C789.996 86.6894 788.284 82.0065 784.308 78.7974C780.496 75.7205 775.229 74.52 769.196 74.52V82.52C774.362 82.52 777.496 83.5795 779.283 85.0226C780.908 86.3335 781.996 88.4306 781.996 92.08H789.996ZM769.196 74.52H750.476V82.52H769.196V74.52ZM746.476 78.52V105.76H754.476V78.52H746.476Z" fill="white"/>
<path d="M354.875 69.9213V149.078L285.5 190.437L216.125 149.078V69.9213L285.5 28.5623L354.875 69.9213ZM291.281 18.5491C289.524 17.5343 287.53 17.0001 285.5 17.0001C283.47 17.0001 281.476 17.5343 279.719 18.5491L210.344 59.9082C208.586 60.923 207.126 62.3826 206.112 64.1402C205.097 65.8979 204.563 67.8917 204.562 69.9213V149.078C204.563 151.108 205.097 153.102 206.112 154.859C207.126 156.617 208.586 158.077 210.344 159.091L279.719 200.45C281.476 201.465 283.47 201.999 285.5 201.999C287.53 201.999 289.524 201.465 291.281 200.45L360.656 159.091C362.414 158.077 363.874 156.617 364.888 154.859C365.903 153.102 366.437 151.108 366.438 149.078V69.9213C366.437 67.8917 365.903 65.8979 364.888 64.1402C363.874 62.3826 362.414 60.923 360.656 59.9082L291.281 18.5491Z" fill="white"/>
<rect x="283.622" y="19.7263" width="35.3292" height="89.265" rx="17.6646" transform="rotate(60 283.622 19.7263)" fill="white"/>
<rect width="32.4281" height="89.265" transform="translate(269.413 50.1625) rotate(-60)" fill="white"/>
<rect width="29.005" height="89.265" transform="translate(209.087 150.706) rotate(-60)" fill="white"/>
<rect width="29.005" height="89.265" transform="translate(238.091 154.526) rotate(-180)" fill="white"/>
<rect width="29.005" height="89.265" transform="translate(362.765 154.526) rotate(-180)" fill="white"/>
<rect width="29.005" height="89.265" transform="translate(346.72 125.587) rotate(60)" fill="white"/>
</g>
<defs>
<clipPath id="clip0_138_2">
<rect width="900" height="224" fill="white"/>
</clipPath>
</defs>
</svg>
